<?xml version="1.0" standalone="no"?>
<!DOCTYPE svg PUBLIC "-//W3C//DTD SVG 20010904//EN"
 "http://www.w3.org/TR/2001/REC-SVG-20010904/DTD/svg10.dtd">
<svg version="1.0" xmlns="http://www.w3.org/2000/svg"
 width="524.000000pt" height="524.000000pt" viewBox="0 0 524.000000 524.000000"
 preserveAspectRatio="xMidYMid meet">
<metadata>
Created by potrace 1.11, written by Peter Selinger 2001-2013
</metadata>
<g transform="translate(0.000000,524.000000) scale(0.100000,-0.100000)"
fill="#000000" stroke="none">
<path d="M641 4924 c-151 -40 -287 -167 -336 -314 -20 -59 -26 -194 -12 -264
13 -68 69 -168 127 -226 150 -153 360 -188 556 -94 241 114 338 409 216 650
-57 112 -149 193 -267 235 -75 27 -207 33 -284 13z"/>
<path d="M1883 4925 c-75 -21 -133 -50 -190 -98 -51 -42 -120 -136 -141 -192
-103 -268 41 -556 322 -645 50 -16 165 -20 224 -7 75 15 165 62 225 117 271
247 186 679 -158 810 -74 28 -206 35 -282 15z"/>
<path d="M3145 4930 c-140 -31 -264 -121 -328 -238 -172 -316 46 -704 403
-717 138 -5 257 42 356 140 297 293 104 804 -311 821 -44 2 -98 -1 -120 -6z"/>
<path d="M4363 4926 c-123 -30 -245 -122 -307 -232 -58 -102 -76 -250 -46
-365 33 -125 135 -246 255 -304 39 -18 86 -37 105 -40 319 -66 613 189 587
510 -10 121 -53 213 -141 301 -34 34 -85 73 -114 88 -103 52 -231 68 -339 42z"/>
<path d="M638 3685 c-95 -26 -188 -87 -248 -162 -254 -317 -35 -781 370 -785
132 -1 241 43 336 137 79 78 117 143 142 245 11 49 5 185 -12 242 -33 111
-132 230 -233 281 -109 56 -247 72 -355 42z"/>
<path d="M1850 3677 c-247 -88 -380 -333 -315 -581 22 -85 61 -152 126 -217
255 -256 688 -151 799 195 84 258 -72 542 -335 611 -88 22 -197 19 -275 -8z"/>
<path d="M3130 3691 c-199 -43 -364 -240 -373 -444 -13 -279 208 -511 483
-509 165 1 309 78 401 215 105 158 108 362 7 522 -90 141 -235 222 -400 223
-46 0 -99 -3 -118 -7z"/>
<path d="M4331 3678 c-356 -112 -452 -564 -175 -817 310 -283 815 -50 799 369
-3 98 -6 109 -36 181 -55 131 -192 247 -329 278 -73 17 -188 12 -259 -11z"/>
<path d="M738 2465 c-2 -2 -23 -5 -48 -8 -190 -24 -358 -182 -399 -377 -10
-44 -8 -173 3 -220 13 -57 78 -170 124 -214 105 -102 188 -138 328 -142 108
-4 135 2 231 48 384 184 344 751 -62 886 -51 17 -168 35 -177 27z"/>
<path d="M1903 2454 c-121 -25 -246 -112 -312 -219 -72 -114 -92 -273 -51
-402 21 -66 71 -143 127 -199 148 -146 374 -175 571 -75 68 35 155 129 196
212 69 143 68 278 -4 426 -96 195 -313 301 -527 257z"/>
<path d="M3218 2465 c-2 -1 -27 -5 -55 -9 -160 -19 -312 -141 -375 -302 -63
-159 -27 -358 88 -493 19 -22 62 -58 95 -80 191 -128 441 -105 604 55 156 154
191 385 87 578 -59 110 -211 222 -327 240 -54 9 -113 14 -117 11z"/>
<path d="M4383 2453 c-215 -43 -375 -226 -387 -441 -8 -144 38 -267 139 -368
97 -98 206 -144 343 -144 86 0 200 34 266 79 223 154 281 448 132 671 -109
162 -303 242 -493 203z"/>
<path d="M645 1210 c-192 -50 -329 -202 -357 -400 -23 -154 23 -293 135 -404
103 -104 215 -148 360 -142 103 5 169 25 245 77 257 171 291 531 72 747 -120
118 -291 164 -455 122z"/>
<path d="M1861 1205 c-416 -132 -464 -699 -76 -890 225 -112 479 -44 620 165
98 145 102 359 10 509 -37 62 -111 136 -166 170 -113 67 -265 85 -388 46z"/>
<path d="M3135 1214 c-74 -17 -104 -31 -170 -75 -174 -118 -248 -332 -185
-539 43 -143 147 -253 295 -311 87 -33 243 -33 332 2 428 167 412 772 -25 914
-65 21 -180 25 -247 9z"/>
<path d="M4366 1213 c-259 -59 -423 -329 -356 -587 76 -296 398 -447 676 -317
79 37 180 133 218 209 59 116 70 268 28 384 -55 155 -196 281 -352 314 -53 11
-158 10 -214 -3z"/>
</g>
</svg>
